<?xml version="1.0" standalone="no"?>
<!DOCTYPE svg PUBLIC "-//W3C//DTD SVG 20010904//EN"
 "http://www.w3.org/TR/2001/REC-SVG-20010904/DTD/svg10.dtd">
<svg version="1.0" xmlns="http://www.w3.org/2000/svg"
 width="800.000000pt" height="800.000000pt" viewBox="0 0 800.000000 800.000000"
 preserveAspectRatio="xMidYMid meet">
<metadata>
Created by potrace 1.14, written by Peter Selinger 2001-2017
</metadata>
<g transform="translate(0.000000,800.000000) scale(0.100000,-0.100000)"
fill="#000000" stroke="none">
<path d="M2274 5453 c4 -9 97 -170 208 -357 111 -188 253 -429 316 -536 63
-107 170 -287 237 -400 67 -113 234 -394 370 -625 136 -231 299 -508 363 -615
63 -107 140 -238 170 -290 64 -109 64 -108 68 -95 2 6 86 147 185 315 100 168
228 385 286 483 l104 178 -114 192 c-63 106 -174 293 -247 417 -73 124 -183
311 -245 415 -127 214 -422 715 -499 847 l-51 88 -579 0 c-535 0 -578 -1 -572
-17z"/>
<path d="M4580 5466 c0 -2 56 -98 124 -213 289 -488 385 -651 416 -706 18 -32
36 -55 40 -50 9 10 205 338 392 658 74 127 145 246 156 265 12 19 22 38 22 43
0 4 -259 7 -575 7 -316 0 -575 -2 -575 -4z"/>
</g>
</svg>
